<svg xmlns:xlink="http://www.w3.org/1999/xlink" xmlns="http://www.w3.org/2000/svg" width="192" height="192" viewBox="0 0 192 192" fill="none">
<rect width="192" height="192" fill="white"/>
<path d="M160 132.666L129.206 150.287C128.827 150.487 128.404 150.592 127.974 150.592C127.544 150.592 127.122 150.487 126.742 150.287L63.9741 114.333V77.6156L160 132.666Z" fill="#2853C3"/>
<path d="M127.973 41L158.767 58.6204C159.141 58.8407 159.451 59.1536 159.667 59.5285C159.883 59.9034 159.997 60.3275 159.999 60.7593V132.667L127.973 114.333V41Z" fill="#1A4199"/>
<path d="M127.975 41L96.0005 59.3333L127.975 77.6667V41Z" fill="#2853C3"/>
<path d="M63.9741 151L95.9997 132.667L63.9741 114.333V151Z" fill="#3CA9E5"/>
<path d="M65.2061 41.7123L127.975 77.666V114.333L32 59.3327L62.7939 41.7123C63.1588 41.4971 63.5755 41.3835 64 41.3835C64.4245 41.3835 64.8412 41.4971 65.2061 41.7123Z" fill="#3CA9E5"/>
<path d="M32 59.3333V131.241C32.0013 131.673 32.1154 132.097 32.3313 132.472C32.5472 132.846 32.8575 133.159 33.2318 133.38L64.0258 151V77.6156L32 59.3333Z" fill="#60BEFF"/>
</svg>